<svg xmlns="http://www.w3.org/2000/svg" viewBox="0 0 345.79 65.17"><defs><style>.cls-1{fill:#1d1f29;}.cls-2{fill:#a40010;}</style></defs><title>Asset 2</title><g id="Layer_2" data-name="Layer 2"><g id="Layer_1-2" data-name="Layer 1"><polygon class="cls-1" points="41.58 0.24 57.63 16.29 25.53 48.39 42.31 65.17 58.18 49.3 73.5 64.62 89.54 48.57 73.31 32.34 89.27 16.38 73.04 0.15 41.58 0.24"/><polygon class="cls-1" points="115.99 0.24 83.53 32.7 115.99 65.17 147.9 33.25 115.99 0.24"/><polygon class="cls-2" points="156.11 0.24 140.42 15.93 157.75 33.25 126.56 64.44 157.75 64.44 189.57 32.61 173.07 16.11 188.39 0.79 156.11 0.24"/><polygon class="cls-2" points="197.69 0.24 181.82 16.11 198.24 32.52 182.73 48.02 198.69 63.98 230.15 63.98 214.69 48.52 230.51 32.7 214.28 16.47 230.51 0.24 197.69 0.24"/><polygon class="cls-2" points="240 0.24 223.52 16.72 239.75 32.95 223.74 48.97 238.81 64.04 271.06 31.79 255.93 16.66 272.58 0 240 0.24"/><polygon class="cls-2" points="281.09 0.24 264.62 16.72 280.55 32.65 264.53 48.67 279.6 63.74 314.16 63.74 345.79 32.11 314.04 0.36 281.09 0.24"/><polygon class="cls-1" points="0 0.24 0 64.07 47.96 16.11 32.46 0.61 0 0.24"/></g></g></svg>